<?xml version="1.0" standalone="no"?>
<!DOCTYPE svg PUBLIC "-//W3C//DTD SVG 20010904//EN"
 "http://www.w3.org/TR/2001/REC-SVG-20010904/DTD/svg10.dtd">
<svg version="1.0" xmlns="http://www.w3.org/2000/svg"
 width="1024.000000pt" height="1024.000000pt" viewBox="0 0 1024.000000 1024.000000"
 preserveAspectRatio="xMidYMid meet">

<g transform="translate(0.000000,1024.000000) scale(0.100000,-0.100000)"
fill="#000000" stroke="none">
<path d="M4890 8919 c-282 -17 -657 -90 -910 -178 -231 -79 -508 -202 -502
-222 1 -6 -2 -8 -7 -4 -13 7 -116 -45 -254 -129 -263 -160 -600 -438 -795
-657 -644 -718 -982 -1609 -982 -2584 0 -743 213 -1456 626 -2091 47 -72 177
-248 215 -289 14 -16 67 -75 117 -130 102 -113 279 -276 439 -404 140 -111
369 -263 399 -265 13 0 24 -5 24 -9 0 -5 4 -6 8 -3 5 3 25 -6 45 -19 20 -14
38 -25 41 -25 3 0 35 -14 71 -32 42 -19 62 -34 54 -39 -7 -4 -3 -7 12 -7 13 0
35 -3 49 -7 14 -4 -27 22 -90 57 -322 179 -594 397 -865 693 -159 173 -244
289 -468 630 -36 55 -93 169 -194 385 -94 199 -217 601 -267 866 -52 273 -59
362 -60 679 -1 320 8 429 59 694 45 232 81 362 156 558 21 56 39 107 39 114 0
19 194 411 235 476 21 32 58 90 83 128 141 219 392 521 547 660 43 39 85 78
94 88 9 11 34 32 56 47 22 16 52 40 67 54 15 14 30 26 33 26 4 0 30 20 58 44
119 100 308 219 547 344 296 154 603 256 990 328 294 54 764 61 1099 14 274
-38 602 -127 843 -230 122 -52 406 -196 483 -244 247 -155 369 -248 574 -436
100 -92 240 -241 291 -310 25 -34 60 -78 115 -146 17 -20 32 -42 34 -48 2 -6
10 -17 18 -24 13 -13 135 -186 160 -227 7 -11 36 -58 65 -105 28 -47 75 -127
103 -177 29 -51 55 -90 59 -86 4 4 4 0 1 -9 -3 -8 1 -22 9 -31 9 -9 16 -28 16
-44 0 -22 2 -25 10 -13 9 13 10 13 11 0 1 -8 0 -26 -1 -39 -1 -14 2 -21 9 -17
7 5 11 -4 11 -22 0 -17 6 -32 15 -36 8 -3 15 -12 15 -19 0 -8 12 -50 26 -93
29 -89 56 -189 85 -314 11 -47 24 -94 29 -105 11 -25 44 -220 67 -390 12 -98
17 -209 17 -445 0 -281 2 -306 12 -230 10 73 11 78 13 36 2 -90 10 -42 21 124
27 420 -51 988 -191 1390 -139 399 -333 766 -576 1086 -22 28 -22 29 -16 4 5
-25 5 -25 -24 5 -16 17 -34 38 -39 48 -10 17 -91 110 -161 184 -17 18 -29 33
-27 33 3 0 -1 6 -8 14 -7 8 -16 12 -20 9 -5 -2 -8 2 -8 9 0 7 -20 27 -45 43
-24 17 -47 36 -50 43 -2 7 0 10 5 7 6 -3 10 -4 10 -2 0 9 -75 51 -85 48 -5 -1
-7 0 -3 4 7 8 -27 45 -41 45 -5 0 -16 6 -23 13 -7 6 -42 36 -78 66 -36 30 -72
62 -80 70 -8 9 -29 25 -46 36 -96 61 -192 127 -210 144 -12 11 -24 18 -27 15
-2 -2 -10 2 -17 11 -7 8 -17 15 -23 15 -6 0 -18 6 -26 14 -9 8 -77 45 -151 83
-74 37 -136 71 -138 76 -2 4 -10 7 -17 7 -7 0 -46 16 -86 35 -41 19 -81 35
-89 35 -9 0 -20 4 -25 9 -6 4 -46 20 -90 34 -44 15 -127 42 -185 61 -114 37
-264 76 -320 83 -19 2 -64 11 -99 20 -90 21 -84 20 -237 34 -328 30 -784 13
-1069 -41 -60 -12 -126 -22 -145 -23 -19 -2 -41 -6 -47 -10 -24 -15 -169 -54
-225 -61 -38 -5 -58 -12 -58 -21 0 -14 -21 -25 -50 -25 -10 0 -34 -9 -53 -20
-21 -12 -41 -18 -52 -13 -13 4 -16 3 -11 -5 5 -8 -2 -12 -23 -12 -16 0 -33 -5
-36 -11 -7 -10 -111 -59 -123 -58 -4 1 -9 0 -12 -1 -15 -6 -60 -10 -60 -5 0 5
82 44 105 49 19 5 70 26 89 37 10 6 37 17 60 24 22 8 73 26 111 40 207 78 488
149 555 140 31 -4 40 -3 31 4 -18 11 -4 15 109 30 186 25 290 31 528 31 140 0
253 2 251 4 -9 9 -383 13 -509 5z m482 -79 c218 -15 403 -43 603 -90 113 -27
411 -125 530 -175 185 -77 437 -214 595 -323 52 -36 111 -76 130 -90 19 -13
46 -33 60 -45 14 -12 90 -76 170 -143 136 -113 277 -254 385 -386 89 -109 203
-263 198 -268 -2 -3 -9 3 -14 13 -6 9 -17 17 -24 17 -8 0 -15 4 -15 9 0 6 -21
32 -46 58 -25 26 -57 65 -70 85 -61 95 -361 394 -494 491 -30 23 -88 69 -129
104 -41 35 -78 63 -83 63 -5 0 -23 13 -41 30 -17 16 -60 44 -94 61 -35 18 -63
36 -63 40 0 5 -6 9 -13 9 -7 0 -23 9 -35 20 -12 11 -25 20 -30 20 -18 0 -182
97 -175 103 3 4 -3 7 -14 7 -29 0 -145 45 -138 53 3 4 2 5 -1 3 -8 -6 -82 23
-114 44 -14 9 -46 23 -72 30 -26 7 -45 16 -42 21 2 4 -18 11 -46 15 -27 4 -50
10 -50 14 0 6 -36 18 -75 25 -27 5 -71 19 -80 25 -34 25 -464 108 -487 94 -5
-3 -8 -1 -8 4 0 6 -17 9 -37 9 -21 -1 -105 5 -188 12 -96 9 -211 12 -321 8
-119 -4 -175 -2 -183 6 -8 8 -11 8 -11 -1 0 -7 -12 -12 -27 -12 -16 0 -59 -4
-98 -9 -38 -6 -97 -12 -130 -16 -79 -8 -164 -26 -195 -42 -31 -16 -52 -16 -85
-1 -21 9 -28 9 -38 -4 -6 -9 -48 -25 -92 -36 -83 -21 -128 -36 -182 -59 -17
-7 -38 -13 -46 -13 -9 0 -19 -4 -22 -10 -3 -5 -24 -9 -46 -8 -26 1 -44 -4 -50
-13 -7 -12 -9 -11 -9 2 0 10 16 21 43 29 23 8 47 17 52 21 6 4 26 11 45 17 19
5 89 26 154 46 388 119 813 165 1248 136z m-1562 -260 c0 -5 -3 -10 -7 -10 -5
0 -18 -3 -30 -6 -13 -4 -23 -2 -23 4 0 10 19 18 48 21 6 0 12 -3 12 -9z m-78
-35 c0 -6 -22 -16 -49 -24 -26 -7 -55 -16 -63 -19 -8 -3 -19 -6 -25 -8 -5 -1
-19 -5 -30 -10 -47 -17 -4 7 70 40 80 35 96 39 97 21z m-163 -16 c-15 -9 -32
-2 -24 11 3 5 13 6 21 3 12 -4 13 -8 3 -14z m-49 -13 c-7 -7 -13 -7 -20 0 -6
6 -3 10 10 10 13 0 16 -4 10 -10z m-52 -29 c-14 -14 -57 -40 -70 -43 -5 -1
-11 -3 -15 -4 -5 -1 -11 -2 -15 -1 -5 0 -8 -3 -8 -7 0 -10 -45 -33 -73 -39
-10 -2 -25 -10 -33 -18 -20 -20 -41 -20 -25 -1 7 8 54 35 104 61 51 26 96 51
102 56 5 5 17 9 28 9 15 0 16 -2 5 -13z m67 -27 c-3 -5 -11 -10 -16 -10 -6 0
-7 5 -4 10 3 6 11 10 16 10 6 0 7 -4 4 -10z m-50 -22 c-11 -6 -22 -14 -25 -17
-3 -3 -17 -12 -32 -20 -15 -8 -25 -19 -21 -24 3 -6 1 -7 -5 -3 -13 8 -63 -14
-57 -25 3 -4 -4 -5 -15 -2 -12 3 -19 7 -18 8 2 1 23 14 48 27 25 14 61 35 80
46 19 11 42 21 50 21 10 0 9 -3 -5 -11z m-275 -82 c0 -3 -15 -15 -32 -27 l-33
-22 25 26 c23 24 40 33 40 23z m100 -22 c0 -6 -65 -34 -77 -34 -9 1 58 39 70
40 4 0 7 -2 7 -6z m-190 -44 c0 -5 -7 -10 -15 -10 -8 0 -15 -6 -15 -12 -1 -15
-63 -64 -75 -59 -4 1 -11 -3 -15 -9 -4 -7 -10 -8 -13 -3 -3 5 10 17 29 28 19
10 34 22 34 27 0 4 15 17 33 28 37 23 37 23 37 10z m40 -65 c0 -2 -10 -10 -22
-16 -21 -11 -22 -11 -9 4 13 16 31 23 31 12z m-76 -30 c-4 -8 -11 -15 -16 -15
-6 0 -5 6 2 15 7 8 14 15 16 15 2 0 1 -7 -2 -15z m-104 -16 c0 -5 -4 -7 -10
-4 -5 3 -10 1 -10 -5 0 -6 -4 -9 -9 -6 -9 6 -34 -18 -26 -25 2 -3 -4 -10 -15
-17 -12 -7 -21 -8 -25 -2 -3 6 1 10 9 10 9 0 16 4 16 8 0 5 9 18 20 30 22 23
50 29 50 11z m0 -64 c-7 -8 -17 -15 -23 -15 -6 0 -2 7 9 15 25 19 30 19 14 0z
m-117 -30 c-10 -7 -22 -11 -27 -8 -5 4 -6 1 -2 -5 3 -6 -3 -16 -16 -23 -12 -6
-31 -21 -42 -32 -12 -10 -34 -28 -51 -38 -16 -10 -25 -19 -20 -19 12 -1 -36
-29 -49 -30 -11 0 73 82 124 122 62 49 74 56 87 51 10 -4 9 -8 -4 -18z m57 -9
c0 -2 -17 -16 -37 -31 l-38 -26 35 30 c34 31 40 35 40 27z m-276 -170 c-10 -8
-21 -12 -24 -10 -5 6 21 24 34 24 6 0 1 -6 -10 -14z m75 2 c-2 -2 -17 -14 -34
-28 l-30 -25 29 32 c16 18 32 31 34 28 3 -3 3 -6 1 -7z m-88 -75 c-5 -10 -22
-29 -37 -43 -23 -21 -22 -18 7 17 37 46 45 53 30 26z m-91 -16 c0 -2 -9 -12
-20 -22 -24 -21 -27 -14 -4 9 15 15 24 20 24 13z m5540 -438 c8 -18 5 -16 -12
6 -12 17 -35 43 -50 58 -16 16 -26 33 -22 38 5 9 64 -61 84 -102z m50 -70 c0
-5 -4 -9 -10 -9 -5 0 -10 7 -10 16 0 8 5 12 10 9 6 -3 10 -10 10 -16z m-5 -95
c31 -47 69 -109 83 -137 15 -29 29 -54 32 -57 14 -12 67 -130 59 -130 -5 0 -9
4 -9 9 0 5 -6 16 -13 23 -7 7 -35 53 -60 102 -26 48 -61 108 -77 131 -17 24
-30 48 -30 52 0 5 -11 24 -25 43 -23 31 -31 50 -21 50 2 0 29 -39 61 -86z"/>
<path d="M5450 8903 c73 -5 198 -23 313 -44 59 -11 113 -19 120 -16 12 4 -163
37 -300 57 -39 5 -96 9 -125 8 -52 -1 -52 -2 -8 -5z"/>
<path d="M6600 8860 c0 -5 5 -10 10 -10 6 0 10 5 10 10 0 6 -4 10 -10 10 -5 0
-10 -4 -10 -10z"/>
<path d="M5940 8825 c25 -8 52 -15 61 -15 22 0 293 -83 355 -108 52 -21 113
-38 103 -28 -23 24 -427 147 -524 161 l-40 5 45 -15z"/>
<path d="M6718 8795 c13 -9 26 -14 29 -11 8 8 3 12 -27 21 l-25 7 23 -17z"/>
<path d="M6785 8779 c-8 -13 34 -52 79 -72 30 -13 42 -15 53 -6 11 10 10 14
-5 25 -11 7 -35 14 -54 16 -27 1 -34 6 -31 19 5 17 -33 34 -42 18z"/>
<path d="M6940 8672 c0 -11 45 -32 66 -32 8 0 13 4 9 10 -3 5 -12 7 -19 4 -7
-3 -19 2 -26 11 -14 16 -30 20 -30 7z"/>
<path d="M6475 8662 c6 -5 33 -18 60 -28 79 -29 315 -147 412 -207 100 -62
133 -80 133 -73 0 10 -219 136 -345 200 -125 63 -281 127 -260 108z"/>
<path d="M7090 8346 c0 -3 9 -10 20 -16 11 -6 20 -8 20 -6 0 3 -9 10 -20 16
-11 6 -20 8 -20 6z"/>
<path d="M7160 8296 c0 -3 9 -10 20 -16 11 -6 20 -8 20 -6 0 3 -9 10 -20 16
-11 6 -20 8 -20 6z"/>
<path d="M7237 8239 c7 -7 15 -10 18 -7 3 3 -2 9 -12 12 -14 6 -15 5 -6 -5z"/>
<path d="M7347 8159 c7 -7 15 -10 18 -7 3 3 -2 9 -12 12 -14 6 -15 5 -6 -5z"/>
<path d="M7430 8096 c0 -2 8 -10 18 -17 15 -13 16 -12 3 4 -13 16 -21 21 -21
13z"/>
<path d="M7470 8066 c0 -2 8 -10 18 -17 15 -13 16 -12 3 4 -13 16 -21 21 -21
13z"/>
<path d="M7570 7975 c19 -19 36 -35 39 -35 3 0 -10 16 -29 35 -19 19 -36 35
-39 35 -3 0 10 -16 29 -35z"/>
<path d="M7695 7850 c44 -47 104 -111 134 -143 29 -32 55 -57 56 -55 6 5 -184
208 -241 258 -16 14 7 -13 51 -60z"/>
<path d="M7917 7916 c4 -8 47 -61 94 -118 225 -271 443 -600 539 -813 142
-313 222 -527 222 -590 -1 -28 2 -35 8 -25 6 9 10 10 10 3 0 -6 3 -20 6 -30 5
-15 4 -16 -6 -3 -9 12 -10 9 -5 -16 3 -17 7 -66 9 -108 3 -60 0 -76 -11 -76
-33 0 -64 -151 -40 -195 6 -11 12 -24 13 -30 1 -5 5 -17 9 -26 3 -10 2 -20 -4
-24 -6 -3 -11 -13 -11 -21 0 -8 4 -13 9 -9 6 3 8 -10 5 -32 -3 -29 -2 -33 5
-18 9 18 10 17 10 -8 1 -16 -3 -26 -7 -23 -5 3 -5 -16 -1 -42 38 -228 46 -736
16 -967 -29 -212 -46 -312 -82 -460 -112 -467 -282 -859 -543 -1254 -208 -313
-535 -662 -829 -884 -185 -139 -199 -148 -356 -244 -171 -103 -516 -265 -637
-297 -14 -4 -34 -11 -45 -16 -68 -31 -392 -120 -435 -120 -12 0 -18 -5 -15
-10 4 -6 -9 -10 -32 -10 -21 0 -65 -5 -98 -10 -259 -43 -679 -63 -887 -41
-134 14 -369 48 -418 61 -82 21 -215 49 -218 45 -7 -6 93 -33 152 -40 31 -4
58 -10 60 -14 5 -7 -74 -4 -120 5 -19 3 -34 1 -38 -5 -5 -8 4 -10 26 -9 33 3
33 3 30 -38 -2 -23 1 -45 7 -49 7 -4 11 5 11 24 0 37 17 41 26 6 4 -16 13 -25
26 -25 11 0 27 -8 36 -17 16 -16 16 -16 -3 -9 -11 5 -33 10 -50 12 -28 3 -28
3 -5 -4 l25 -8 -29 -8 c-20 -5 -32 -3 -37 6 -4 7 -11 9 -15 5 -14 -13 10 -25
56 -29 25 -2 48 -7 51 -12 4 -5 34 -9 67 -10 33 0 55 -4 50 -7 -13 -8 98 -24
317 -45 491 -48 1094 38 1610 228 154 57 493 218 602 286 276 172 469 318 688
517 80 73 102 89 65 50 -30 -33 -64 -68 -76 -77 -12 -10 -37 -32 -55 -50 -19
-18 -53 -48 -76 -67 -24 -19 -40 -38 -36 -45 3 -6 3 -8 -2 -4 -4 4 -14 0 -23
-8 -11 -12 -12 -18 -3 -23 9 -6 7 -11 -5 -22 -10 -8 -15 -9 -12 -4 4 6 3 16
-1 23 -5 9 -14 4 -32 -15 -17 -20 -18 -23 -3 -10 27 22 33 22 27 -3 -3 -11 -8
-20 -12 -20 -4 0 -23 -13 -41 -30 -34 -30 -42 -34 -70 -31 -11 1 -12 0 -3 -6
9 -6 7 -12 -8 -22 -12 -7 -18 -8 -15 -2 12 18 -12 21 -35 3 -14 -9 -33 -23
-44 -29 -29 -18 -161 -100 -230 -144 -54 -34 -284 -151 -440 -224 -51 -24
-298 -115 -312 -115 -2 0 -2 -4 1 -8 3 -5 -8 -9 -23 -10 -16 0 -51 -8 -77 -17
-55 -18 -365 -92 -409 -97 -16 -2 -28 -7 -25 -13 5 -11 11 -11 85 1 28 4 69 7
93 6 31 -2 44 2 49 14 5 13 15 15 48 9 31 -4 47 -2 57 9 8 8 31 14 52 13 21
-1 40 3 44 9 15 21 66 47 70 36 5 -16 18 -15 34 2 19 18 63 32 53 17 -9 -15
33 -6 97 20 26 10 53 19 60 19 7 0 36 12 63 25 28 14 56 25 63 25 7 0 34 11
60 25 26 14 52 25 59 25 6 0 24 11 40 24 15 13 42 26 59 30 17 4 41 16 52 26
12 11 24 20 27 20 3 0 29 15 58 33 29 18 82 47 118 64 55 26 139 84 219 149
70 59 254 184 269 184 5 0 19 14 31 30 12 17 29 30 38 30 24 1 52 24 52 44 0
9 8 16 18 16 22 0 62 40 62 62 0 9 11 19 24 22 14 3 34 20 46 36 12 17 27 30
35 30 7 0 21 12 31 28 18 28 36 46 73 72 13 9 21 25 21 42 0 21 5 28 18 28 20
0 54 31 51 46 -4 23 3 35 26 44 32 12 42 37 26 62 -9 15 -9 22 4 34 8 9 15 23
15 32 0 12 -9 6 -28 -18 -15 -19 -37 -44 -50 -55 -33 -27 -46 -54 -27 -51 8 1
18 6 22 11 4 4 2 5 -4 1 -7 -4 -13 -4 -13 1 0 4 14 16 31 26 l31 17 -34 -42
c-61 -79 -92 -109 -107 -105 -9 2 -32 -13 -51 -33 -19 -19 -44 -42 -55 -50
-19 -14 -19 -14 -5 4 8 11 44 51 80 89 35 37 71 78 79 90 8 12 40 52 71 88 30
36 68 83 83 103 16 20 32 34 37 31 5 -3 11 -1 15 5 4 6 11 7 17 4 7 -4 8 -2 4
5 -6 9 -11 9 -22 0 -8 -6 -14 -8 -14 -5 0 11 33 60 52 77 10 9 18 21 18 26 0
6 9 18 20 28 11 10 20 22 20 26 0 13 110 188 123 196 6 4 8 0 5 -9 -4 -8 -3
-21 2 -28 5 -8 12 0 21 26 7 22 12 42 11 47 -1 4 2 7 8 7 12 0 33 38 36 67 1
13 1 23 -2 23 -10 0 -34 -62 -28 -72 4 -6 3 -8 -3 -5 -6 4 -15 -5 -22 -20 -6
-14 -14 -23 -17 -21 -5 5 26 67 56 115 12 18 17 20 29 10 12 -9 13 -9 7 1 -4
6 -2 12 3 12 6 0 11 6 11 14 0 8 6 17 13 19 8 4 9 6 0 6 -6 1 -19 -6 -27 -15
-9 -8 -16 -12 -16 -7 0 12 39 73 46 73 4 0 1 -6 -5 -14 -8 -10 -9 -16 -1 -21
10 -6 11 -3 14 45 1 14 8 34 15 45 10 16 11 17 7 2 -4 -11 -2 -16 5 -12 6 4 8
13 5 21 -3 8 10 50 29 93 19 44 35 84 35 91 0 6 5 8 12 4 6 -4 8 -3 4 4 -3 6
2 32 13 59 11 28 21 42 23 33 3 -8 4 -5 2 6 -5 30 16 85 29 77 6 -4 8 0 4 11
-9 22 34 157 46 149 6 -4 7 -1 3 6 -11 17 2 61 17 58 6 -1 12 5 12 13 1 8 7
26 14 39 10 19 10 25 1 31 -17 11 -4 61 14 54 16 -6 27 38 19 78 -3 18 1 33
11 43 9 9 16 25 16 36 0 11 7 22 15 25 10 4 12 11 7 18 -14 18 -23 48 -12 41
6 -4 10 14 10 46 0 28 9 108 21 178 11 69 23 146 27 171 5 27 12 44 20 42 6
-1 12 2 12 8 0 5 -4 10 -10 10 -6 0 -10 27 -10 60 0 49 3 58 15 54 8 -4 15 -1
15 5 0 6 -4 11 -10 11 -6 0 -10 36 -10 89 0 50 5 93 10 96 6 3 10 15 10 26 0
10 -4 19 -10 19 -5 0 -10 16 -10 35 0 21 5 35 13 35 8 0 8 3 -2 9 -18 12 -32
217 -16 244 7 13 7 20 -3 26 -7 4 -15 30 -17 57 -2 27 -5 56 -8 64 -11 33 -15
90 -6 90 5 0 9 9 9 20 0 11 -5 19 -12 18 -14 -3 -29 70 -16 78 13 9 9 44 -6
44 -16 0 -27 47 -19 80 4 15 1 26 -11 32 -18 10 -22 43 -6 53 16 10 12 32 -8
52 -23 22 -35 53 -22 53 6 0 10 11 10 25 0 18 -5 25 -19 25 -20 0 -38 52 -20
58 15 6 10 42 -7 42 -8 0 -22 16 -30 35 -18 43 -18 46 2 38 13 -5 15 -2 9 18
-4 13 -15 30 -26 38 -21 15 -25 47 -7 53 8 3 3 14 -15 30 -27 25 -36 58 -17
58 6 0 5 8 -2 20 -7 11 -19 20 -26 20 -18 0 -26 28 -12 45 10 12 6 20 -20 44
-22 20 -31 35 -26 46 10 27 -4 65 -25 65 -15 0 -18 7 -17 36 1 28 -4 41 -23
55 -16 12 -23 26 -21 43 2 18 -4 30 -22 42 -15 9 -26 26 -26 38 0 40 -12 66
-31 66 -23 0 -34 17 -20 34 13 16 -21 66 -45 66 -9 0 -14 11 -14 30 0 23 -6
33 -25 42 -14 6 -25 19 -25 29 0 30 -22 68 -35 62 -14 -5 -39 30 -29 40 11 11
-17 46 -38 49 -15 2 -23 10 -24 23 -2 40 -4 44 -31 57 -18 8 -30 25 -36 48 -9
37 -23 51 -42 44 -6 -3 -18 2 -25 11 -7 8 -10 15 -6 15 4 0 0 13 -9 30 -8 16
-21 29 -27 27 -6 -1 -16 7 -22 19 -18 34 -73 84 -93 84 -10 0 -24 9 -31 20
-14 23 -38 28 -25 6z m890 -1618 c-3 -8 -6 -5 -6 6 -1 11 2 17 5 13 3 -3 4
-12 1 -19z m-1467 -4417 c0 -5 -7 -11 -14 -14 -10 -4 -13 -1 -9 9 6 15 23 19
23 5z m-2680 -611 c0 -5 -4 -10 -10 -10 -5 0 -10 5 -10 10 0 6 5 10 10 10 6 0
10 -4 10 -10z"/>
<path d="M2122 7741 c-11 -7 -11 -9 2 -14 10 -4 16 -1 16 8 0 17 -1 17 -18 6z"/>
<path d="M2080 7670 c-8 -5 -12 -12 -9 -15 4 -3 12 1 19 10 14 17 11 19 -10 5z"/>
<path d="M7905 7620 c10 -11 20 -20 23 -20 3 0 -3 9 -13 20 -10 11 -20 20 -23
20 -3 0 3 -9 13 -20z"/>
<path d="M2005 7590 c-3 -5 1 -10 10 -10 9 0 13 5 10 10 -3 6 -8 10 -10 10 -2
0 -7 -4 -10 -10z"/>
<path d="M7939 7573 c12 -24 31 -39 31 -25 0 5 -10 17 -21 28 -22 19 -22 19
-10 -3z"/>
<path d="M1918 7440 c-10 -9 -18 -23 -18 -30 0 -7 10 -1 21 14 25 31 22 41 -3
16z"/>
<path d="M1839 7354 c-7 -8 -7 -14 0 -18 6 -4 7 -14 4 -24 -9 -25 2 -12 20 24
14 26 14 31 1 31 -8 0 -19 -6 -25 -13z"/>
<path d="M1783 7267 c-4 -6 -6 -24 -5 -39 2 -22 -4 -31 -23 -40 -25 -11 -39
-41 -33 -68 2 -8 -9 -20 -24 -27 -16 -8 -28 -21 -28 -29 0 -7 -6 -14 -12 -14
-9 0 -8 -4 2 -10 12 -7 13 -13 4 -27 -7 -10 -18 -17 -25 -16 -16 3 -43 -48
-30 -56 4 -3 10 -12 13 -20 2 -8 23 21 46 65 24 43 47 86 52 94 5 8 31 56 58
106 41 76 46 90 30 91 -10 1 -21 -3 -25 -10z"/>
<path d="M1593 6889 c-28 -10 -50 -49 -34 -59 16 -9 -6 -60 -26 -60 -19 0 -38
-51 -22 -61 19 -11 3 -58 -19 -53 -23 7 -49 -54 -26 -63 8 -3 14 -14 14 -24 0
-18 -5 -21 -39 -23 -8 -1 -19 -14 -24 -29 -7 -23 -6 -31 8 -41 15 -11 16 -16
5 -35 -6 -12 -18 -20 -25 -17 -8 3 -17 -7 -24 -26 -13 -38 -14 -41 -1 -33 6 3
13 -1 16 -9 8 -20 -15 -49 -32 -42 -18 7 -25 -56 -7 -69 18 -14 6 -45 -17 -45
-21 0 -36 -48 -21 -63 18 -18 13 -47 -8 -47 -14 0 -20 -9 -23 -35 -3 -24 0
-35 9 -35 20 0 15 -31 -6 -37 -31 -8 -44 -83 -15 -83 11 0 14 -5 10 -16 -3 -9
-6 -22 -6 -30 0 -11 -6 -13 -19 -9 -16 5 -19 0 -23 -35 -3 -32 0 -41 14 -46
20 -6 22 -13 9 -33 -8 -12 -12 -12 -25 -2 -14 12 -16 9 -16 -28 0 -24 6 -49
15 -57 20 -21 19 -31 -5 -44 -21 -11 -29 -70 -10 -70 6 0 10 -11 10 -25 0 -16
-6 -25 -15 -25 -10 0 -15 -11 -15 -35 0 -19 5 -35 10 -35 6 0 10 -11 10 -25 0
-14 -4 -25 -10 -25 -5 0 -10 -16 -10 -35 0 -19 5 -35 10 -35 12 0 14 -33 3
-44 -12 -12 -11 -160 1 -168 8 -5 7 -13 -1 -28 -15 -24 -17 -80 -3 -80 6 0 10
-9 10 -20 0 -11 -5 -20 -11 -20 -12 0 -3 -59 12 -74 12 -13 11 -46 -1 -46 -11
0 -2 -59 12 -76 5 -7 6 -30 2 -53 -5 -32 -3 -46 11 -61 11 -13 15 -25 10 -37
-11 -25 -6 -55 12 -75 10 -11 13 -26 9 -42 -3 -14 -2 -28 4 -31 6 -3 9 -26 8
-50 0 -24 4 -51 11 -59 8 -10 10 -27 6 -46 -5 -24 -2 -37 13 -53 15 -16 21
-35 20 -66 0 -25 5 -47 12 -51 7 -5 13 -23 12 -41 0 -19 8 -47 18 -64 10 -16
20 -39 22 -50 1 -11 10 -25 18 -31 9 -7 15 -30 15 -57 0 -25 3 -43 7 -41 4 3
10 -7 14 -21 3 -14 10 -25 16 -25 5 0 7 -4 3 -9 -3 -5 1 -15 8 -23 16 -16 77
-185 77 -213 0 -15 2 -17 9 -6 6 10 12 4 21 -23 15 -47 110 -227 167 -318 13
-21 23 -41 23 -45 1 -11 40 -60 40 -50 0 4 -26 54 -59 110 -211 367 -346 736
-437 1197 -61 308 -82 622 -66 972 13 274 25 371 71 607 55 277 134 536 243
791 26 62 47 117 46 121 -2 4 -13 3 -25 -2z"/>
<path d="M8750 6170 c0 -5 5 -10 11 -10 5 0 7 5 4 10 -3 6 -8 10 -11 10 -2 0
-4 -4 -4 -10z"/>
<path d="M2984 6117 c-11 -12 -34 -30 -52 -39 -17 -9 -41 -32 -52 -50 -19 -31
-20 -47 -18 -337 2 -201 7 -306 13 -308 6 -2 21 6 33 17 11 11 26 20 31 20 23
0 29 46 34 274 6 220 8 242 29 285 13 25 26 47 30 49 14 6 20 70 9 91 -15 27
-31 26 -57 -2z m-4 -50 c0 -2 -10 -12 -22 -23 l-23 -19 19 23 c18 21 26 27 26
19z"/>
<path d="M7948 6133 c-16 -2 -28 -8 -28 -13 0 -5 -26 -23 -58 -40 -76 -40
-162 -123 -162 -156 0 -13 -4 -24 -9 -24 -9 0 -16 -43 -27 -163 -6 -60 -8 -67
-25 -62 -15 5 -19 1 -19 -17 0 -13 5 -29 11 -35 9 -9 8 -18 -5 -37 -9 -14 -16
-35 -16 -46 0 -12 -4 -19 -8 -16 -4 2 -6 -11 -4 -30 5 -43 -16 -46 -24 -4 -4
17 -10 30 -14 30 -12 0 -22 -54 -15 -81 3 -13 1 -46 -4 -73 -5 -27 -6 -59 -2
-70 5 -12 2 -55 -6 -96 -22 -116 -22 -115 -32 -475 -5 -187 -12 -349 -16 -360
-4 -11 -21 -33 -36 -50 l-28 -30 171 3 c135 3 185 0 239 -13 38 -10 72 -21 75
-26 3 -5 -112 -9 -270 -9 -188 0 -276 3 -276 11 0 5 -4 7 -10 4 -5 -3 -10 -13
-10 -21 0 -12 44 -14 288 -14 211 0 291 3 300 12 9 9 12 8 12 -5 0 -9 -11 -24
-25 -33 -21 -14 -58 -15 -288 -12 -292 5 -300 6 -333 70 -19 36 -10 73 31 134
25 37 25 35 45 404 6 113 15 229 21 258 6 30 14 97 18 150 6 68 9 -32 10 -338
2 -412 9 -537 24 -429 3 25 9 279 13 565 6 402 4 523 -5 528 -9 6 -9 11 -1 21
8 9 7 14 -5 18 -16 7 -54 -37 -80 -94 -9 -18 -24 -47 -33 -64 -9 -16 -21 -46
-28 -65 -7 -19 -18 -34 -24 -32 -6 1 -9 -2 -6 -7 5 -8 -5 -40 -34 -106 -4 -11
-11 -28 -14 -38 -3 -10 -10 -15 -16 -12 -5 3 -10 1 -10 -4 0 -6 6 -11 13 -11
6 0 4 -5 -5 -11 -10 -5 -18 -14 -18 -20 0 -11 -40 -70 -54 -80 -4 -4 -2 -9 5
-13 11 -5 11 -7 2 -12 -7 -3 -13 -15 -13 -25 0 -12 -5 -17 -10 -14 -6 4 -26
-5 -45 -20 -22 -16 -35 -21 -35 -13 -1 9 -4 9 -13 -3 -7 -8 -21 -19 -32 -23
-19 -7 -19 -8 -2 -17 21 -12 13 -29 -14 -29 -10 0 -19 -6 -19 -14 0 -7 -9 -16
-19 -19 -11 -3 -30 -26 -42 -51 -11 -25 -27 -46 -35 -46 -8 0 -14 -5 -14 -11
0 -6 -7 -9 -15 -5 -12 4 -14 -2 -11 -33 1 -21 5 -42 8 -47 12 -20 20 -76 10
-70 -15 9 2 -47 22 -76 9 -12 16 -32 16 -43 0 -21 24 -95 41 -127 13 -25 46
-23 63 5 8 12 37 83 66 157 28 74 55 144 60 155 5 11 12 30 15 43 4 13 9 21
12 18 6 -5 -78 -240 -126 -351 -34 -79 -51 -95 -94 -90 -40 5 -54 20 -38 39 7
8 10 20 6 26 -7 12 -64 171 -165 460 -37 107 -83 238 -103 290 -20 52 -53 145
-75 205 -62 177 -114 293 -134 298 -31 8 -42 -21 -45 -117 -6 -212 -24 -767
-28 -842 -5 -96 -37 -179 -70 -179 -11 0 -25 -9 -32 -20 -6 -11 -15 -20 -20
-20 -4 0 -27 -21 -50 -46 l-42 -45 147 0 c122 1 152 -2 180 -17 17 -10 32 -19
32 -21 0 -5 -23 -5 -242 -5 -137 0 -208 -4 -208 -11 0 -6 37 -10 98 -11 357
-2 382 -3 382 -21 0 -17 -33 -18 -524 -18 -513 0 -586 4 -586 32 0 7 94 9 296
6 247 -4 298 -3 310 9 15 16 19 33 6 33 -13 0 -72 58 -72 71 0 8 4 8 15 -1 18
-15 18 -16 4 51 -6 30 -12 63 -14 74 -2 11 -10 38 -18 60 -8 22 -24 69 -37
105 -12 36 -27 71 -33 78 -5 6 -6 12 -3 12 4 0 2 8 -3 19 -6 10 -13 33 -16 52
-3 19 -10 36 -16 37 -5 2 -9 10 -9 18 0 7 -9 33 -19 56 -11 24 -29 68 -41 98
-11 30 -25 64 -30 75 -5 11 -18 45 -28 75 -34 99 -92 250 -106 278 -7 15 -28
70 -46 122 -33 97 -104 289 -121 325 -5 11 -20 54 -35 95 -37 105 -60 147 -85
155 -11 4 -21 5 -22 3 -1 -1 -8 -13 -14 -25 -11 -19 -6 -42 41 -170 30 -81 72
-200 94 -263 22 -63 72 -207 112 -320 117 -329 201 -573 210 -605 5 -16 23
-68 40 -115 51 -137 61 -177 58 -217 l-3 -38 -73 -1 c-154 -3 -205 -12 -229
-40 -13 -14 -23 -28 -23 -32 0 -4 96 -7 213 -8 177 0 218 -3 251 -17 22 -10
36 -21 32 -25 -12 -11 -569 -2 -583 10 -9 7 -13 6 -14 -3 -2 -53 -9 -84 -18
-87 -7 -2 -5 -9 4 -19 25 -25 0 -83 -36 -83 -14 0 -19 -7 -19 -25 0 -30 -36
-49 -59 -31 -12 9 -13 8 -8 -7 4 -10 7 -24 7 -30 0 -7 5 -6 11 3 8 12 9 10 5
-10 -3 -14 -6 -31 -6 -38 0 -7 -8 -12 -17 -10 -11 2 -19 -5 -21 -17 -5 -26
-32 -56 -43 -49 -5 3 -9 -7 -9 -23 -1 -24 -2 -25 -11 -10 -12 20 -42 23 -57 5
-5 -7 -13 -35 -17 -63 -4 -27 -9 -45 -10 -40 -2 6 -6 22 -9 38 -4 15 -13 27
-22 27 -12 0 -14 -7 -9 -29 7 -33 -3 -81 -17 -81 -5 0 -8 6 -7 13 3 23 -1 37
-11 37 -5 0 -9 -16 -8 -35 2 -43 -2 -47 -49 -54 -25 -4 -39 -12 -41 -24 -2
-10 3 -17 12 -17 19 0 22 -50 4 -68 -9 -9 -7 -12 10 -12 12 0 22 -4 22 -10 0
-5 -14 -10 -31 -10 -27 0 -30 -2 -19 -15 10 -12 9 -16 -6 -22 -10 -4 -19 -2
-22 5 -9 28 -22 9 -22 -33 0 -25 -4 -45 -10 -45 -5 0 -13 -1 -17 -2 -4 -2 -10
9 -14 25 -4 15 -3 27 2 27 5 0 9 11 9 25 0 14 -4 25 -10 25 -5 0 -10 -11 -10
-24 0 -14 -4 -28 -10 -31 -6 -3 -10 -19 -10 -36 0 -16 -4 -29 -10 -29 -5 0 -7
-6 -4 -14 3 -8 1 -17 -5 -20 -6 -4 -13 9 -16 31 -12 69 -18 69 -33 -4 -16 -72
-27 -89 -38 -55 -16 50 -24 56 -20 15 4 -44 -8 -59 -19 -23 -9 27 -27 25 -53
-5 -23 -26 -31 -95 -12 -95 6 0 10 8 10 18 0 9 5 24 10 32 7 11 10 6 10 -20 0
-19 -5 -42 -11 -50 -8 -13 -12 -12 -26 7 -8 13 -23 23 -33 23 -23 0 -33 26
-20 51 8 15 7 19 -5 19 -8 0 -15 -9 -15 -19 0 -32 -11 -50 -26 -44 -11 4 -13
-2 -7 -28 6 -31 5 -33 -10 -20 -15 12 -17 11 -17 -8 0 -12 -4 -29 -9 -39 -5
-9 -16 -32 -23 -49 -11 -28 -18 -33 -45 -33 -25 0 -33 5 -34 18 0 14 -2 14 -8
-3 -12 -29 -2 -45 25 -45 37 0 28 -44 -8 -46 -58 -3 -58 -3 -58 -44 0 -33 -3
-40 -20 -40 -17 0 -20 -7 -20 -40 0 -29 4 -40 15 -40 8 0 15 -9 15 -19 0 -24
-16 -36 -23 -19 -3 7 -6 1 -6 -14 -1 -21 -6 -28 -21 -28 -17 0 -20 7 -20 39 0
33 -4 39 -24 43 -18 4 -23 1 -19 -9 3 -8 -2 -19 -11 -26 -10 -8 -16 -24 -15
-42 5 -58 -1 -85 -16 -85 -26 0 -19 -65 11 -95 14 -14 23 -29 20 -33 -3 -5 -1
-39 5 -77 7 -49 15 -72 29 -82 26 -18 26 -33 0 -33 -25 0 -27 -20 -2 -20 9 -1
28 -7 41 -14 l24 -13 -23 -13 -24 -13 22 -8 c12 -5 22 -15 22 -22 0 -8 7 -20
15 -27 13 -11 15 -32 9 -139 -7 -119 -13 -142 -39 -140 -5 0 -4 3 3 6 7 2 12
22 12 44 0 39 0 39 -40 39 l-40 0 0 40 c0 33 -3 40 -20 40 -18 0 -20 -7 -20
-80 l0 -80 -62 -2 c-123 -3 -143 -1 -184 20 -23 11 -50 21 -60 21 -60 1 -103
22 -71 34 6 3 -4 6 -25 6 -20 1 -39 7 -41 14 -4 9 -6 9 -6 0 -1 -8 -15 -13
-34 -13 -25 0 -34 -4 -34 -16 0 -9 9 -19 19 -22 10 -2 18 -11 18 -18 0 -8 8
-14 18 -14 11 0 27 -9 37 -20 9 -10 38 -27 64 -36 25 -10 51 -21 56 -25 11 -8
144 -55 330 -116 61 -20 119 -40 130 -44 19 -8 53 -16 220 -53 251 -56 605
-79 875 -56 149 12 346 38 410 55 30 7 89 19 130 25 41 7 91 18 110 25 19 7
89 30 155 50 236 73 506 196 696 316 25 16 51 29 57 29 7 0 12 4 12 8 0 5 20
19 45 32 25 13 45 27 45 32 0 4 7 8 15 8 8 0 15 5 15 10 0 6 5 10 10 10 10 0
148 102 220 162 168 141 444 415 515 512 11 15 50 66 86 114 161 211 412 666
474 857 7 22 29 85 48 140 82 230 133 477 172 820 17 156 18 226 5 300 -9 48
-25 193 -36 320 -3 33 -9 76 -15 95 -5 19 -9 51 -9 71 0 19 -9 54 -20 77 -12
24 -20 48 -19 55 4 20 -12 67 -22 67 -5 0 -14 11 -19 25 -5 14 -18 25 -27 25
-10 0 -24 9 -31 20 -14 23 -47 28 -39 6 4 -10 0 -12 -14 -9 -10 3 -19 12 -19
19 0 10 -13 14 -40 14 -27 0 -40 4 -40 13 0 19 -72 40 -82 24 -6 -9 -8 -8 -9
3 -1 8 -1 19 1 25 1 5 -5 14 -12 20 -8 5 -17 18 -21 28 -3 9 -15 17 -26 17
-14 0 -19 5 -15 14 3 8 1 21 -5 28 -6 7 -25 29 -41 48 -16 19 -30 38 -30 43 0
7 -4 7 -52 0z m-69 -103 c-34 -42 -39 -46 -39 -31 0 8 60 71 67 71 2 0 -11
-18 -28 -40z m-1449 -500 c0 -5 -2 -10 -4 -10 -3 0 -8 5 -11 10 -3 6 -1 10 4
10 6 0 11 -4 11 -10z m6 -95 c21 -50 16 -67 -6 -20 -20 43 -23 55 -14 55 3 0
12 -16 20 -35z m989 -84 c-5 -25 -9 -31 -15 -21 -10 16 -9 18 -33 -65 -12 -39
-15 -44 -16 -22 -1 15 8 53 20 85 11 31 26 73 32 92 l11 35 4 -34 c2 -19 1
-50 -3 -70z m913 -6 c77 -33 112 -95 53 -95 -17 0 -29 -5 -28 -12 1 -46 -7
-61 -54 -98 -58 -45 -99 -52 -122 -20 -14 21 -15 21 -21 -5 -18 -72 99 -149
187 -124 21 6 28 6 20 -2 -33 -33 -138 -25 -183 14 -11 9 -24 17 -28 17 -12 0
-66 61 -82 93 -18 36 0 114 41 179 25 39 37 48 71 55 71 14 108 13 146 -2z
m-1861 -67 c-3 -8 -6 -5 -6 6 -1 11 2 17 5 13 3 -3 4 -12 1 -19z m28 -70 c10
-29 26 -73 36 -98 23 -58 112 -298 154 -420 18 -52 56 -156 85 -230 28 -74 56
-148 62 -165 19 -53 36 -65 95 -65 58 0 68 -11 26 -29 -47 -19 -143 25 -143
65 0 7 -13 35 -30 61 -16 26 -30 55 -30 65 0 10 -4 18 -10 18 -5 0 -14 19 -20
41 -6 23 -20 51 -31 63 -11 11 -25 40 -31 63 -6 24 -14 43 -18 43 -11 0 -40
59 -40 81 0 10 -4 20 -9 23 -4 3 -11 24 -15 46 -3 22 -11 40 -17 40 -5 0 -7 4
-4 10 3 5 -1 22 -9 37 -17 31 -56 234 -52 273 1 14 -4 45 -11 70 -14 48 -15
60 -9 60 3 0 12 -24 21 -52z m788 -123 c-3 -9 -8 -14 -10 -11 -3 3 -2 9 2 15
9 16 15 13 8 -4z m1014 -37 c13 0 20 -4 17 -9 -3 -5 0 -9 5 -9 6 0 11 5 11 11
0 6 7 9 16 7 15 -3 21 -23 7 -23 -5 -1 -19 -7 -32 -14 -33 -18 -86 -6 -111 26
-29 37 -25 42 23 26 23 -8 52 -15 64 -15z m-1084 -153 c-3 -9 -8 -14 -10 -11
-3 3 -2 9 2 15 9 16 15 13 8 -4z m-35 -87 c-6 -18 -13 -27 -15 -21 -4 11 13
53 22 53 2 0 -1 -15 -7 -32z m-1343 -208 c45 -115 51 -133 32 -100 -16 27 -60
139 -72 180 -14 49 4 14 40 -80z m2075 -318 c0 -13 -59 37 -73 63 -5 11 8 2
31 -20 23 -21 42 -41 42 -43z m-1425 28 c27 -30 12 -34 -15 -5 -13 14 -19 25
-13 25 5 0 18 -9 28 -20z m-1680 -940 c3 -5 1 -10 -4 -10 -6 0 -11 5 -11 10 0
6 2 10 4 10 3 0 8 -4 11 -10z m-68 -87 c-3 -10 -5 -4 -5 12 0 17 2 24 5 18 2
-7 2 -21 0 -30z m-77 -33 c0 -5 -5 -10 -11 -10 -5 0 -7 5 -4 10 3 6 8 10 11
10 2 0 4 -4 4 -10z m-23 -42 c-3 -8 -6 -5 -6 6 -1 11 2 17 5 13 3 -3 4 -12 1
-19z m-117 -12 c0 -15 -14 -35 -21 -30 -15 9 -10 34 6 34 8 0 15 -2 15 -4z
m77 -72 c-3 -3 -12 -4 -19 -1 -8 3 -5 6 6 6 11 1 17 -2 13 -5z m-127 -35 c0
-35 -15 -31 -22 6 -4 17 -1 25 8 25 9 0 14 -11 14 -31z m-163 -881 c-3 -7 -5
-2 -5 12 0 14 2 19 5 13 2 -7 2 -19 0 -25z m83 -58 c0 -5 -4 -10 -10 -10 -5 0
-10 5 -10 10 0 6 5 10 10 10 6 0 10 -4 10 -10z m-60 -60 c0 -5 -4 -10 -10 -10
-5 0 -10 5 -10 10 0 6 5 10 10 10 6 0 10 -4 10 -10z m-660 -100 c0 -5 -5 -10
-11 -10 -5 0 -7 5 -4 10 3 6 8 10 11 10 2 0 4 -4 4 -10z m463 -97 c-13 -2 -33
-2 -45 0 -13 2 -3 4 22 4 25 0 35 -2 23 -4z"/>
<path d="M4117 6088 c-98 -68 -91 -27 -100 -563 -4 -258 -6 -628 -5 -821 l3
-352 -172 -4 c-161 -3 -174 -5 -192 -25 l-20 -21 232 -4 c170 -3 239 -7 259
-17 15 -8 25 -18 22 -22 -3 -5 -133 -9 -290 -9 -251 0 -284 2 -284 16 0 10 -7
14 -22 12 -41 -6 -18 -81 33 -108 22 -13 272 -30 494 -35 105 -2 276 -9 382
-15 185 -11 193 -10 237 10 25 11 50 29 55 39 6 10 12 68 14 127 3 78 9 120
22 149 10 22 17 45 16 51 0 6 17 23 39 38 l40 26 188 -6 c103 -3 202 -6 221
-7 24 -2 37 4 45 18 29 50 32 47 71 -58 21 -56 42 -112 46 -125 8 -22 10 -22
26 -7 19 20 17 31 -43 223 -31 97 -40 115 -62 123 -15 6 -153 9 -345 7 l-320
-3 -16 -24 c-18 -28 -94 -232 -112 -303 -7 -26 -18 -49 -25 -52 -7 -3 -54 -6
-106 -7 -51 -1 -100 -5 -108 -10 -8 -4 -24 -11 -35 -16 -12 -4 41 -10 135 -13
147 -5 210 -18 210 -42 0 -4 -101 -8 -223 -8 -211 0 -225 1 -242 20 -10 11
-23 20 -29 20 -16 1 -51 33 -66 60 l-13 25 22 -19 c11 -11 24 -16 29 -12 4 4
8 350 9 769 1 419 5 772 8 784 3 12 21 48 40 80 33 55 43 101 29 137 -9 24
-33 18 -97 -26z m28 -38 c-16 -16 -33 -30 -39 -30 -5 0 3 14 19 30 16 17 33
30 39 30 5 0 -3 -13 -19 -30z m1245 -1354 c0 -8 -5 -18 -12 -22 -6 -4 -152 -6
-324 -6 -289 2 -314 1 -323 -15 -9 -15 -10 -13 -11 14 0 17 6 34 13 36 6 3
157 6 335 6 274 1 322 -1 322 -13z m-35 -58 c14 -13 -6 -28 -24 -19 -10 6 -53
9 -97 9 -161 -3 -448 5 -399 11 69 8 512 7 520 -1z m-677 -412 c1 -2 -1 -11
-4 -20 -6 -16 -26 -17 -243 -12 -130 2 -245 4 -256 3 -11 -1 -147 -2 -303 -1
-234 0 -285 3 -292 15 -8 12 33 15 278 19 270 5 814 2 820 -4z"/>
<path d="M6574 6123 c-34 -6 -37 -52 -10 -120 37 -89 152 -410 211 -588 103
-306 150 -425 167 -425 21 0 -5 138 -42 215 -22 48 -56 175 -47 175 3 0 20
-46 37 -102 17 -57 38 -109 45 -117 12 -13 14 -7 12 37 -1 29 -6 52 -10 52 -5
0 -5 9 -2 20 4 12 -8 64 -30 128 -35 105 -41 121 -63 172 -9 21 -60 161 -154
428 -22 63 -66 133 -82 131 -6 -1 -21 -4 -32 -6z m243 -675 c-3 -8 -6 -5 -6 6
-1 11 2 17 5 13 3 -3 4 -12 1 -19z"/>
<path d="M2360 6096 c0 -13 20 -49 44 -81 36 -46 46 -68 52 -113 4 -32 4 -372
0 -757 -3 -385 -4 -715 0 -732 7 -36 20 -34 35 3 5 15 9 346 9 799 0 667 -2
779 -14 804 -13 24 -105 101 -121 101 -3 0 -5 -11 -5 -24z"/>
<path d="M3530 6095 c0 -8 18 -38 39 -66 21 -29 42 -65 45 -82 3 -16 6 -134 6
-261 1 -178 4 -237 15 -256 l13 -25 11 28 c13 35 15 535 2 569 -13 33 -51 73
-88 92 -39 20 -43 20 -43 1z"/>
<path d="M5990 6081 c0 -31 41 -89 82 -117 15 -10 31 -30 35 -44 4 -14 8 -349
8 -744 0 -561 3 -720 12 -723 10 -4 13 116 13 554 0 307 3 644 6 749 4 105 4
202 0 217 -10 40 -54 86 -107 112 l-49 23 0 -27z m55 -41 c3 -5 2 -10 -4 -10
-5 0 -13 5 -16 10 -3 6 -2 10 4 10 5 0 13 -4 16 -10z"/>
<path d="M8220 5951 c0 -6 5 -13 10 -16 6 -3 10 1 10 9 0 9 -4 16 -10 16 -5 0
-10 -4 -10 -9z"/>
<path d="M8322 5889 c2 -7 10 -15 17 -17 8 -3 12 1 9 9 -2 7 -10 15 -17 17 -8
3 -12 -1 -9 -9z"/>
<path d="M5020 5698 c-11 -18 -49 -118 -84 -223 -36 -104 -85 -250 -110 -323
-55 -160 -56 -172 -17 -172 17 0 33 5 36 10 3 6 16 10 27 10 12 0 18 3 15 6
-3 4 5 15 19 26 28 23 88 144 98 202 4 21 13 48 21 60 7 12 16 38 19 58 4 20
13 50 21 65 8 15 15 38 15 51 0 54 22 9 79 -162 77 -234 105 -298 125 -290 9
3 16 13 16 21 0 24 -209 645 -225 670 -21 31 -32 29 -55 -9z m31 -61 c-8 -8
-11 -5 -11 9 0 27 14 41 18 19 2 -9 -1 -22 -7 -28z"/>
<path d="M2057 5253 c-4 -3 -7 -19 -7 -35 0 -41 -26 -87 -56 -98 -14 -6 -43
-10 -64 -10 -44 0 -70 26 -70 70 l-1 25 -14 -25 c-20 -35 -18 -69 5 -107 11
-18 16 -33 12 -33 -4 -1 24 -16 62 -35 73 -38 116 -44 136 -20 7 8 16 13 20
10 12 -7 29 18 49 71 14 35 16 57 10 91 -13 69 -58 121 -82 96z m-15 -193 c16
-17 16 -19 -7 -34 -30 -20 -58 -20 -94 -2 -36 19 -55 42 -46 57 12 18 126 2
147 -21z"/>
<path d="M2874 5076 c-18 -14 -19 -29 -19 -353 0 -306 2 -341 18 -366 9 -14
17 -29 17 -33 0 -3 -8 -3 -17 1 -10 4 -93 9 -184 12 -140 4 -172 2 -198 -11
-17 -9 -31 -19 -31 -22 0 -2 104 -4 231 -4 195 1 234 -1 255 -15 13 -8 24 -18
24 -20 0 -3 -129 -5 -287 -5 -257 1 -288 3 -300 18 -11 15 -14 15 -23 2 -17
-25 -11 -47 20 -78 20 -20 43 -31 72 -35 80 -10 536 -9 556 2 45 24 53 119 12
148 -35 25 -42 83 -41 366 1 149 4 273 7 276 12 12 606 13 618 1 7 -7 12 -88
14 -243 3 -323 3 -323 9 -309 2 6 10 12 17 12 14 0 23 162 25 464 2 146 -1
171 -15 187 -16 18 -38 19 -389 19 -305 0 -375 -3 -391 -14z m766 -11 c10 -12
10 -16 -2 -20 -7 -3 -175 -4 -372 -3 -265 2 -360 6 -363 15 -6 17 14 18 388
21 289 2 338 0 349 -13z m-27 -59 c-2 -5 -108 -8 -235 -9 -351 -1 -430 2 -423
13 7 12 661 7 658 -4z m-642 -693 l24 -27 -24 15 c-14 9 -27 21 -29 27 -6 19
3 14 29 -15z m19 -83 c-1 -25 -24 -32 -101 -32 -385 -1 -467 2 -488 20 -21 16
-9 17 284 17 168 0 305 -2 305 -5z"/>
<path d="M8713 4735 c0 -22 2 -30 4 -17 2 12 2 30 0 40 -3 9 -5 -1 -4 -23z"/>
<path d="M5226 3981 c-4 -7 -5 -15 -2 -18 9 -9 19 4 14 18 -4 11 -6 11 -12 0z"/>
<path d="M4880 3530 c0 -5 5 -10 11 -10 5 0 7 5 4 10 -3 6 -8 10 -11 10 -2 0
-4 -4 -4 -10z"/>
<path d="M4687 3426 c-5 -21 -6 -41 -3 -44 12 -11 17 7 14 44 l-3 39 -8 -39z"/>
<path d="M8625 3409 c-10 -15 1 -23 20 -15 9 3 13 10 10 16 -8 13 -22 13 -30
-1z"/>
<path d="M4543 3339 c-1 -16 2 -29 7 -29 12 0 13 47 3 53 -5 3 -9 -8 -10 -24z"/>
<path d="M8590 3310 c0 -19 3 -21 12 -12 9 9 9 15 0 24 -9 9 -12 7 -12 -12z"/>
<path d="M8536 3224 c-8 -22 4 -40 15 -23 11 18 11 39 0 39 -5 0 -12 -7 -15
-16z"/>
<path d="M4396 3212 c-2 -4 -1 -14 5 -22 7 -12 9 -10 9 8 0 23 -5 28 -14 14z"/>
<path d="M8484 3126 c-8 -22 3 -33 18 -18 9 9 9 15 0 24 -9 9 -13 7 -18 -6z"/>
<path d="M8417 3089 c-14 -24 -24 -46 -21 -48 3 -3 9 1 13 8 7 11 11 9 20 -8
13 -24 31 -28 31 -6 0 8 -6 15 -14 15 -8 0 -17 7 -20 16 -5 12 -2 15 9 10 20
-7 30 17 17 40 -8 14 -13 10 -35 -27z"/>
<path d="M4340 3095 c0 -5 5 -17 10 -25 5 -8 10 -10 10 -5 0 6 -5 17 -10 25
-5 8 -10 11 -10 5z"/>
<path d="M4268 3034 c-5 -4 -8 -16 -8 -28 0 -14 3 -17 11 -9 6 6 9 19 7 28 -1
9 -6 13 -10 9z"/>
<path d="M8365 3008 c-3 -13 -3 -32 -1 -43 3 -11 5 -26 5 -32 1 -20 19 -15 32
8 8 17 8 23 -2 30 -7 4 -17 5 -21 3 -4 -3 -8 -1 -8 5 0 5 5 13 10 16 13 8 13
35 0 35 -5 0 -12 -10 -15 -22z"/>
<path d="M1870 3000 c15 -29 60 -95 91 -130 29 -35 13 -6 -39 70 -53 75 -70
95 -52 60z"/>
<path d="M4210 2895 c0 -8 5 -15 10 -15 6 0 10 7 10 15 0 8 -4 15 -10 15 -5 0
-10 -7 -10 -15z"/>
<path d="M4110 2863 c0 -22 2 -25 10 -13 13 20 13 40 0 40 -5 0 -10 -12 -10
-27z"/>
<path d="M8312 2870 c-16 -26 -15 -50 2 -50 15 0 26 21 26 51 0 25 -12 24 -28
-1z"/>
<path d="M2000 2823 c0 -6 8 -17 18 -24 16 -13 16 -13 2 6 -8 11 -16 22 -17
24 -2 2 -3 0 -3 -6z"/>
<path d="M8252 2778 c-15 -15 -15 -35 -1 -44 13 -8 29 13 29 39 0 20 -11 22
-28 5z"/>
<path d="M8172 2680 c-18 -29 -15 -40 12 -40 28 0 42 26 25 46 -15 19 -22 18
-37 -6z"/>
<path d="M8013 2533 c-4 -10 -16 -26 -28 -35 -16 -14 -17 -17 -4 -18 9 0 22
11 29 25 7 14 17 25 22 25 4 0 8 5 8 10 0 17 -20 11 -27 -7z"/>
<path d="M3410 2111 c0 -12 47 -61 60 -61 5 0 10 7 10 15 0 8 -9 15 -20 15
-11 0 -19 3 -19 8 3 20 -2 32 -16 32 -8 0 -15 -4 -15 -9z"/>
<path d="M3504 2056 c-9 -19 -8 -25 7 -34 20 -12 49 -6 49 10 0 5 -9 12 -19
15 -11 3 -21 11 -23 19 -2 9 -7 5 -14 -10z"/>
<path d="M3580 2035 c0 -8 5 -15 10 -15 6 0 10 7 10 15 0 8 -4 15 -10 15 -5 0
-10 -7 -10 -15z"/>
<path d="M4000 2030 c0 -19 3 -21 12 -12 9 9 9 15 0 24 -9 9 -12 7 -12 -12z"/>
<path d="M7430 1985 c-14 -16 -3 -20 19 -6 8 5 9 11 3 15 -5 3 -15 -1 -22 -9z"/>
<path d="M2830 1956 c0 -11 30 -39 36 -34 2 3 -5 13 -16 23 -11 10 -20 15 -20
11z"/>
<path d="M2866 1895 c-3 -8 3 -19 14 -25 15 -8 20 -8 20 1 0 7 9 9 25 5 14 -4
25 -2 25 4 0 5 -12 12 -27 16 -16 3 -33 7 -40 9 -6 2 -14 -3 -17 -10z"/>
<path d="M2956 1819 c3 -6 21 -17 38 -25 17 -8 43 -23 57 -35 18 -15 33 -18
52 -14 33 9 36 26 5 22 -13 -1 -22 3 -21 10 1 6 -4 14 -13 17 -10 4 -13 2 -8
-6 4 -7 3 -8 -4 -4 -7 4 -12 14 -12 22 0 8 -4 14 -9 14 -5 0 -17 3 -25 6 -13
5 -15 2 -9 -12 6 -18 6 -18 -14 -1 -22 19 -48 23 -37 6z"/>
<path d="M3610 1790 c8 -5 20 -10 25 -10 6 0 3 5 -5 10 -8 5 -19 10 -25 10 -5
0 -3 -5 5 -10z"/>
<path d="M3133 1735 c-10 -11 -7 -17 12 -29 13 -9 28 -16 32 -16 4 -1 23 -14
42 -30 18 -15 39 -26 47 -23 7 2 23 -7 35 -21 14 -17 33 -26 51 -26 15 0 28
-5 28 -11 0 -16 31 -38 54 -39 10 0 31 -11 48 -25 16 -14 42 -28 56 -31 15 -4
35 -15 45 -25 10 -10 30 -21 45 -25 15 -3 43 -14 63 -25 20 -10 45 -19 56 -19
10 0 23 -4 29 -10 19 -19 142 -59 164 -53 14 4 21 2 17 -4 -10 -15 149 -59
182 -50 11 2 29 -2 41 -10 11 -8 35 -13 53 -12 17 1 52 -3 76 -10 35 -10 45
-10 51 0 5 7 15 9 26 4 11 -4 47 -9 81 -10 34 -2 71 -6 82 -10 12 -3 21 -2 21
3 0 5 -28 15 -62 21 -233 45 -402 86 -463 111 -11 4 -63 20 -115 35 -52 15
-107 33 -121 41 -14 7 -55 23 -90 35 -35 12 -91 35 -123 50 -33 16 -63 26 -68
23 -4 -3 -8 1 -8 8 0 8 -23 21 -52 30 -29 9 -80 32 -113 52 -87 52 -126 69
-158 68 -21 -1 -27 3 -23 13 3 10 0 12 -11 8 -10 -4 -14 -2 -9 5 10 16 -7 22
-21 7z"/>
<path d="M3750 1650 c8 -5 20 -10 25 -10 6 0 3 5 -5 10 -8 5 -19 10 -25 10 -5
0 -3 -5 5 -10z"/>
<path d="M3845 1610 c-4 -6 -12 -7 -18 -3 -7 4 -6 0 2 -10 7 -9 19 -17 25 -17
6 0 5 4 -3 9 -11 7 -10 11 5 20 11 6 14 11 7 11 -6 0 -15 -5 -18 -10z"/>
<path d="M3885 1600 c3 -5 16 -10 28 -9 21 0 21 1 2 9 -28 12 -37 12 -30 0z"/>
<path d="M3940 1580 c0 -5 5 -10 10 -10 6 0 10 5 10 10 0 6 -4 10 -10 10 -5 0
-10 -4 -10 -10z"/>
<path d="M3898 1563 c6 -2 18 -2 25 0 6 3 1 5 -13 5 -14 0 -19 -2 -12 -5z"/>
<path d="M4008 1549 c-10 -5 -18 -15 -18 -20 0 -6 8 -9 18 -6 9 2 29 -3 45
-10 16 -8 27 -9 27 -3 0 5 -6 10 -12 10 -9 0 -8 3 2 10 11 7 9 11 -13 19 -33
13 -28 13 -49 0z m37 -9 c3 -5 2 -10 -4 -10 -5 0 -13 5 -16 10 -3 6 -2 10 4
10 5 0 13 -4 16 -10z"/>
<path d="M3958 1533 c7 -3 16 -2 19 1 4 3 -2 6 -13 5 -11 0 -14 -3 -6 -6z"/>
<path d="M4093 1523 c10 -17 56 -25 75 -14 15 9 15 10 1 11 -9 0 -31 3 -49 7
-22 4 -31 3 -27 -4z"/>
<path d="M4130 1480 c-12 -8 -11 -10 7 -10 12 0 25 5 28 10 8 13 -15 13 -35 0z"/>
<path d="M3878 1443 c7 -3 16 -2 19 1 4 3 -2 6 -13 5 -11 0 -14 -3 -6 -6z"/>
<path d="M4065 1380 c28 -12 47 -12 40 0 -3 6 -18 10 -33 9 -24 0 -25 -1 -7
-9z"/>
<path d="M4238 1333 c6 -2 18 -2 25 0 6 3 1 5 -13 5 -14 0 -19 -2 -12 -5z"/>
<path d="M5616 1233 c-11 -3 -14 -8 -8 -12 15 -9 132 -1 132 10 0 9 -90 11
-124 2z"/>
<path d="M5484 1209 c-3 -5 13 -9 35 -9 22 0 42 4 45 9 3 4 -13 8 -35 8 -22 0
-42 -4 -45 -8z"/>
<path d="M4838 1203 c7 -3 16 -2 19 1 4 3 -2 6 -13 5 -11 0 -14 -3 -6 -6z"/>
</g>
</svg>
